<mxfile host="app.diagrams.net" agent="Mozilla/5.0 (Windows NT 10.0; Win64; x64; rv:140.0) Gecko/20100101 Firefox/140.0" version="27.1.4">
  <diagram id="C5RBs43oDa-KdzZeNtuy" name="Page-1">
    <mxGraphModel dx="727" dy="406" grid="1" gridSize="10" guides="1" tooltips="1" connect="1" arrows="1" fold="1" page="1" pageScale="1" pageWidth="827" pageHeight="1169" math="0" shadow="0">
      <root>
        <mxCell id="WIyWlLk6GJQsqaUBKTNV-0" />
        <mxCell id="WIyWlLk6GJQsqaUBKTNV-1" parent="WIyWlLk6GJQsqaUBKTNV-0" />
        <mxCell id="JXzyQCiw4FISLdYdSJXX-15" style="edgeStyle=orthogonalEdgeStyle;rounded=0;orthogonalLoop=1;jettySize=auto;html=1;" edge="1" parent="WIyWlLk6GJQsqaUBKTNV-1" source="JXzyQCiw4FISLdYdSJXX-13" target="JXzyQCiw4FISLdYdSJXX-14">
          <mxGeometry relative="1" as="geometry" />
        </mxCell>
        <mxCell id="JXzyQCiw4FISLdYdSJXX-13" value="Adicionar é clicado" style="ellipse;whiteSpace=wrap;html=1;" vertex="1" parent="WIyWlLk6GJQsqaUBKTNV-1">
          <mxGeometry x="354" y="40" width="120" height="40" as="geometry" />
        </mxCell>
        <mxCell id="JXzyQCiw4FISLdYdSJXX-17" style="edgeStyle=orthogonalEdgeStyle;rounded=0;orthogonalLoop=1;jettySize=auto;html=1;" edge="1" parent="WIyWlLk6GJQsqaUBKTNV-1" source="JXzyQCiw4FISLdYdSJXX-14" target="JXzyQCiw4FISLdYdSJXX-16">
          <mxGeometry relative="1" as="geometry" />
        </mxCell>
        <mxCell id="JXzyQCiw4FISLdYdSJXX-14" value="&lt;div&gt;As informações essenciais são preenchidas&lt;/div&gt;" style="rounded=1;whiteSpace=wrap;html=1;" vertex="1" parent="WIyWlLk6GJQsqaUBKTNV-1">
          <mxGeometry x="354" y="150" width="120" height="70" as="geometry" />
        </mxCell>
        <mxCell id="JXzyQCiw4FISLdYdSJXX-21" style="edgeStyle=orthogonalEdgeStyle;rounded=0;orthogonalLoop=1;jettySize=auto;html=1;" edge="1" parent="WIyWlLk6GJQsqaUBKTNV-1" source="JXzyQCiw4FISLdYdSJXX-16" target="JXzyQCiw4FISLdYdSJXX-20">
          <mxGeometry relative="1" as="geometry" />
        </mxCell>
        <mxCell id="JXzyQCiw4FISLdYdSJXX-16" value="O sistema registra a data do preenchimento" style="rounded=1;whiteSpace=wrap;html=1;" vertex="1" parent="WIyWlLk6GJQsqaUBKTNV-1">
          <mxGeometry x="354" y="290" width="120" height="60" as="geometry" />
        </mxCell>
        <mxCell id="JXzyQCiw4FISLdYdSJXX-20" value="O Registro é adicionado" style="ellipse;whiteSpace=wrap;html=1;" vertex="1" parent="WIyWlLk6GJQsqaUBKTNV-1">
          <mxGeometry x="354" y="420" width="120" height="40" as="geometry" />
        </mxCell>
      </root>
    </mxGraphModel>
  </diagram>
</mxfile>
